<svg width="230" height="36" viewBox="0 0 230 36" fill="none" xmlns="http://www.w3.org/2000/svg">
<path fill-rule="evenodd" clip-rule="evenodd" d="M23.8 13.8462L28 8.30769H33.6L23.8 13.8462Z" fill="white"/>
<path d="M0 36L16.8 19.3846L23.8 13.8462L19.6 22.1538L0 36Z" fill="white"/>
<path fill-rule="evenodd" clip-rule="evenodd" d="M42 29.0769L35 26.3077L23.8 13.8462L42 29.0769Z" fill="white"/>
<path d="M16.8 9.69231L23.8 13.8462L19.6 6.92308L7 0L16.8 9.69231Z" fill="white"/>
<path d="M61.6271 8.33245C63.4869 8.33245 65.0094 8.81266 66.1945 9.77309C67.3797 10.715 67.9723 12.2018 67.9723 14.2335C67.9723 16.2467 67.3797 17.7243 66.1945 18.6662C65.0276 19.6082 63.5051 20.0976 61.6271 20.1346C61.2078 20.153 58.9924 20.1623 54.9811 20.1623V28.6398H52V8.33245H61.6271ZM59.9314 17.4749C60.9525 17.4749 61.8003 17.4195 62.475 17.3087C63.1678 17.1979 63.7513 16.9024 64.2253 16.4222C64.7176 15.942 64.9638 15.2124 64.9638 14.2335C64.9638 13.2546 64.7176 12.5251 64.2253 12.0449C63.7513 11.5646 63.1678 11.2691 62.475 11.1583C61.8003 11.0475 60.9525 10.9921 59.9314 10.9921H54.9811V17.4749H59.9314Z" fill="white"/>
<path d="M88.9427 28.6398H85.3872L79.8899 20.1623H74.6388V28.6398H71.6577V8.33245H81.8591C83.7189 8.33245 85.2414 8.81266 86.4265 9.77309C87.6117 10.715 88.2043 12.2018 88.2043 14.2335C88.2043 15.9881 87.7484 17.3364 86.8368 18.2784C85.9251 19.2018 84.7126 19.7836 83.1993 20.0237L88.9427 28.6398ZM74.6388 10.9921V17.4749H80.1634C81.1845 17.4749 82.0323 17.4195 82.707 17.3087C83.3998 17.1979 83.9833 16.9024 84.4574 16.4222C84.9496 15.942 85.1958 15.2124 85.1958 14.2335C85.1958 13.2546 84.9496 12.5251 84.4574 12.0449C83.9833 11.5646 83.3998 11.2691 82.707 11.1583C82.0323 11.0475 81.1845 10.9921 80.1634 10.9921H74.6388Z" fill="white"/>
<path d="M100.98 28.9723C98.9195 28.9723 97.1509 28.5198 95.674 27.6148C94.1971 26.7098 93.0757 25.4631 92.3099 23.8747C91.5441 22.2863 91.1612 20.4855 91.1612 18.4723C91.1612 16.4591 91.5441 14.6675 92.3099 13.0976C93.0757 11.5092 94.1971 10.2625 95.674 9.35752C97.1509 8.45251 98.9195 8 100.98 8C103.04 8 104.809 8.45251 106.286 9.35752C107.781 10.2625 108.911 11.5092 109.677 13.0976C110.443 14.6675 110.826 16.4591 110.826 18.4723C110.826 20.4855 110.443 22.2863 109.677 23.8747C108.911 25.4631 107.79 26.7098 106.313 27.6148C104.836 28.5198 103.058 28.9723 100.98 28.9723ZM100.98 26.2296C102.493 26.2296 103.742 25.8694 104.727 25.1491C105.73 24.4288 106.468 23.4868 106.942 22.3232C107.416 21.1412 107.653 19.8575 107.653 18.4723C107.653 17.1055 107.416 15.8404 106.942 14.6768C106.468 13.4947 105.73 12.5435 104.727 11.8232C103.742 11.1029 102.493 10.7427 100.98 10.7427C99.4847 10.7427 98.2357 11.1029 97.2329 11.8232C96.2301 12.5435 95.4916 13.4947 95.0176 14.6768C94.5617 15.8404 94.3338 17.1055 94.3338 18.4723C94.3338 19.8575 94.5617 21.1412 95.0176 22.3232C95.4916 23.4868 96.2301 24.4288 97.2329 25.1491C98.2357 25.8694 99.4847 26.2296 100.98 26.2296Z" fill="white"/>
<path d="M130.381 21.7137C130.253 24.1517 129.479 25.9802 128.056 27.1992C126.652 28.3997 124.656 29 122.067 29C120.371 29 118.894 28.6398 117.636 27.9195C116.396 27.1992 115.412 26.2757 114.682 25.1491C113.953 24.004 113.461 22.7942 113.205 21.5198L116.05 20.4116C116.287 21.6491 116.706 22.7018 117.308 23.5699C117.928 24.438 118.648 25.0937 119.468 25.5369C120.307 25.9802 121.182 26.2018 122.094 26.2018C123.917 26.2018 125.248 25.7216 126.087 24.7612C126.926 23.8008 127.391 22.3879 127.482 20.5224C127.5 20.153 127.509 18.8325 127.509 16.5607L127.482 8.33245H130.49L130.518 15.2309C130.518 17.7982 130.472 19.9591 130.381 21.7137Z" fill="white"/>
<path d="M151.216 8.33245V10.9921H138.526V16.7823H146.512V19.442H138.526V25.9802H151.216V28.6398H135.545V8.33245H151.216Z" fill="white"/>
<path d="M164.203 28.9723C162.124 28.9723 160.328 28.5198 158.815 27.6148C157.32 26.7098 156.18 25.4723 155.396 23.9024C154.63 22.314 154.247 20.5132 154.247 18.5C154.247 16.4868 154.63 14.6953 155.396 13.1253C156.18 11.5369 157.32 10.2902 158.815 9.38522C160.328 8.48021 162.124 8.02771 164.203 8.02771C166.299 8.02771 168.095 8.48945 169.591 9.41293C171.104 10.3364 172.253 11.6108 173.037 13.2361L169.864 14.0396C168.752 11.8602 166.865 10.7704 164.203 10.7704C162.671 10.7704 161.404 11.1306 160.401 11.8509C159.398 12.5712 158.66 13.5224 158.186 14.7045C157.712 15.8681 157.475 17.1332 157.475 18.5C157.475 19.8668 157.712 21.1319 158.186 22.2955C158.66 23.4591 159.398 24.4011 160.401 25.1214C161.404 25.8417 162.671 26.2018 164.203 26.2018C165.734 26.2018 167.047 25.8232 168.141 25.066C169.253 24.2902 170.01 23.1082 170.411 21.5198L173.638 21.9631C172.873 24.3087 171.706 26.0633 170.138 27.2269C168.588 28.3905 166.609 28.9723 164.203 28.9723Z" fill="white"/>
<path d="M192.587 8.33245V10.9921H185.421V28.6398H182.44V10.9921H175.275V8.33245H192.587Z" fill="white"/>
<path d="M222.725 18.0013L230 28.6398H226.445L220.92 20.6332L215.423 28.6398H211.785L219.115 18.029L212.414 8.33245H216.079L220.92 15.3971L225.788 8.33245H229.344L222.725 18.0013Z" fill="white"/>
<path fill-rule="evenodd" clip-rule="evenodd" d="M210.229 8.33246L196.308 28.6398H192.67L206.673 8.33246H210.229Z" fill="white"/>
</svg>
